<svg width="24" height="24" viewBox="0 0 24 24" fill="none" xmlns="http://www.w3.org/2000/svg">
<path d="M8.15811 10.5H14.8766" stroke="#556284" stroke-width="1.5" stroke-miterlimit="10" stroke-linecap="round" stroke-linejoin="round"/>
<path d="M6.71845 18.4302H10.5576L14.8286 21.3902C15.4621 21.8302 16.3162 21.3602 16.3162 20.5602V18.4302C19.1956 18.4302 21.1151 16.4302 21.1151 13.4302V7.43018C21.1151 4.43018 19.1956 2.43018 16.3162 2.43018H6.71845C3.83911 2.43018 1.91956 4.43018 1.91956 7.43018V13.4302C1.91956 16.4302 3.83911 18.4302 6.71845 18.4302Z" stroke="#556284" stroke-width="1.5" stroke-miterlimit="10" stroke-linecap="round" stroke-linejoin="round"/>
<ellipse cx="18.2358" cy="16.322" rx="5.75868" ry="5.76" fill="#82E594"/>
<path d="M23.0368 16.3203L18.0368 13.4336L18.0368 19.2071L23.0368 16.3203ZM14.3988 16.3203L14.3988 16.8203L18.5368 16.8203L18.5368 16.3203L18.5368 15.8203L14.3988 15.8203L14.3988 16.3203Z" fill="#556284"/>
</svg>
