<svg width="254" height="32" viewBox="0 0 254 32" fill="none" xmlns="http://www.w3.org/2000/svg">
<path d="M16 0C24.8366 0 32 7.16344 32 16C32 17.3857 30.7561 18.3731 29.3729 18.2902L26.8936 18.1416C24.3681 17.99 22.3538 15.9757 22.2021 13.4502L21.5625 2.78125L20.9229 13.4502C20.7712 15.9757 18.7569 17.99 16.2314 18.1416L5.5625 18.7812L16.2314 19.4209C18.7569 19.5725 20.7712 21.5868 20.9229 24.1123L21.015 25.6498C21.2079 28.8684 19.2243 32 16 32C7.16344 32 0 24.8366 0 16C0 7.16344 7.16344 0 16 0ZM26.8936 19.4209C29.32 19.2752 31.2237 21.5003 30.0621 23.6356C29.3529 24.9393 28.4678 26.1334 27.4386 27.186C25.2108 29.4643 22.0114 27.2931 22.2021 24.1123C22.3538 21.5868 24.3681 19.5725 26.8936 19.4209Z" fill="white"/>
<path d="M56.42 8.96L51.44 23H47.16L42.18 8.96H45.82L49.3 19.56L52.8 8.96H56.42ZM67.5694 17.24C67.5694 17.56 67.5494 17.8933 67.5094 18.24H59.7694C59.8227 18.9333 60.0427 19.4667 60.4294 19.84C60.8294 20.2 61.316 20.38 61.8894 20.38C62.7427 20.38 63.336 20.02 63.6694 19.3H67.3094C67.1227 20.0333 66.7827 20.6933 66.2894 21.28C65.8094 21.8667 65.2027 22.3267 64.4694 22.66C63.736 22.9933 62.916 23.16 62.0094 23.16C60.916 23.16 59.9427 22.9267 59.0894 22.46C58.236 21.9933 57.5694 21.3267 57.0894 20.46C56.6094 19.5933 56.3694 18.58 56.3694 17.42C56.3694 16.26 56.6027 15.2467 57.0694 14.38C57.5494 13.5133 58.216 12.8467 59.0694 12.38C59.9227 11.9133 60.9027 11.68 62.0094 11.68C63.0894 11.68 64.0494 11.9067 64.8894 12.36C65.7294 12.8133 66.3827 13.46 66.8494 14.3C67.3294 15.14 67.5694 16.12 67.5694 17.24ZM64.0694 16.34C64.0694 15.7533 63.8694 15.2867 63.4694 14.94C63.0694 14.5933 62.5694 14.42 61.9694 14.42C61.396 14.42 60.9094 14.5867 60.5094 14.92C60.1227 15.2533 59.8827 15.7267 59.7894 16.34H64.0694ZM73.1136 23.16C72.1403 23.16 71.2736 22.9933 70.5136 22.66C69.7536 22.3267 69.1536 21.8733 68.7136 21.3C68.2736 20.7133 68.0269 20.06 67.9736 19.34H71.3536C71.3936 19.7267 71.5736 20.04 71.8936 20.28C72.2136 20.52 72.6069 20.64 73.0736 20.64C73.5003 20.64 73.8269 20.56 74.0536 20.4C74.2936 20.2267 74.4136 20.0067 74.4136 19.74C74.4136 19.42 74.2469 19.1867 73.9136 19.04C73.5803 18.88 73.0403 18.7067 72.2936 18.52C71.4936 18.3333 70.8269 18.14 70.2936 17.94C69.7603 17.7267 69.3003 17.4 68.9136 16.96C68.5269 16.5067 68.3336 15.9 68.3336 15.14C68.3336 14.5 68.5069 13.92 68.8536 13.4C69.2136 12.8667 69.7336 12.4467 70.4136 12.14C71.1069 11.8333 71.9269 11.68 72.8736 11.68C74.2736 11.68 75.3736 12.0267 76.1736 12.72C76.9869 13.4133 77.4536 14.3333 77.5736 15.48H74.4136C74.3603 15.0933 74.1869 14.7867 73.8936 14.56C73.6136 14.3333 73.2403 14.22 72.7736 14.22C72.3736 14.22 72.0669 14.3 71.8536 14.46C71.6403 14.6067 71.5336 14.8133 71.5336 15.08C71.5336 15.4 71.7003 15.64 72.0336 15.8C72.3803 15.96 72.9136 16.12 73.6336 16.28C74.4603 16.4933 75.1336 16.7067 75.6536 16.92C76.1736 17.12 76.6269 17.4533 77.0136 17.92C77.4136 18.3733 77.6203 18.9867 77.6336 19.76C77.6336 20.4133 77.4469 21 77.0736 21.52C76.7136 22.0267 76.1869 22.4267 75.4936 22.72C74.8136 23.0133 74.0203 23.16 73.1136 23.16ZM82.3459 13.42C82.6793 12.9 83.1393 12.48 83.7259 12.16C84.3126 11.84 84.9993 11.68 85.7859 11.68C86.7059 11.68 87.5393 11.9133 88.2859 12.38C89.0326 12.8467 89.6193 13.5133 90.0459 14.38C90.4859 15.2467 90.7059 16.2533 90.7059 17.4C90.7059 18.5467 90.4859 19.56 90.0459 20.44C89.6193 21.3067 89.0326 21.98 88.2859 22.46C87.5393 22.9267 86.7059 23.16 85.7859 23.16C85.0126 23.16 84.3259 23 83.7259 22.68C83.1393 22.36 82.6793 21.9467 82.3459 21.44V28.32H78.9259V11.84H82.3459V13.42ZM87.2259 17.4C87.2259 16.5467 86.9859 15.88 86.5059 15.4C86.0393 14.9067 85.4593 14.66 84.7659 14.66C84.0859 14.66 83.5059 14.9067 83.0259 15.4C82.5593 15.8933 82.3259 16.5667 82.3259 17.42C82.3259 18.2733 82.5593 18.9467 83.0259 19.44C83.5059 19.9333 84.0859 20.18 84.7659 20.18C85.4459 20.18 86.0259 19.9333 86.5059 19.44C86.9859 18.9333 87.2259 18.2533 87.2259 17.4ZM102.22 17.24C102.22 17.56 102.2 17.8933 102.16 18.24H94.4202C94.4735 18.9333 94.6935 19.4667 95.0802 19.84C95.4802 20.2 95.9668 20.38 96.5402 20.38C97.3935 20.38 97.9868 20.02 98.3202 19.3H101.96C101.773 20.0333 101.433 20.6933 100.94 21.28C100.46 21.8667 99.8535 22.3267 99.1202 22.66C98.3868 22.9933 97.5668 23.16 96.6602 23.16C95.5668 23.16 94.5935 22.9267 93.7402 22.46C92.8868 21.9933 92.2202 21.3267 91.7402 20.46C91.2602 19.5933 91.0202 18.58 91.0202 17.42C91.0202 16.26 91.2535 15.2467 91.7202 14.38C92.2002 13.5133 92.8668 12.8467 93.7202 12.38C94.5735 11.9133 95.5535 11.68 96.6602 11.68C97.7402 11.68 98.7002 11.9067 99.5402 12.36C100.38 12.8133 101.033 13.46 101.5 14.3C101.98 15.14 102.22 16.12 102.22 17.24ZM98.7202 16.34C98.7202 15.7533 98.5202 15.2867 98.1202 14.94C97.7202 14.5933 97.2202 14.42 96.6202 14.42C96.0468 14.42 95.5602 14.5867 95.1602 14.92C94.7735 15.2533 94.5335 15.7267 94.4402 16.34H98.7202ZM106.644 13.7C107.044 13.0867 107.544 12.6067 108.144 12.26C108.744 11.9 109.411 11.72 110.144 11.72V15.34H109.204C108.351 15.34 107.711 15.5267 107.284 15.9C106.858 16.26 106.644 16.9 106.644 17.82V23H103.224V11.84H106.644V13.7Z" fill="white"/>
<path d="M138.56 15.06C138.32 14.508 137.952 14.076 137.456 13.764C136.968 13.444 136.392 13.284 135.728 13.284C135.104 13.284 134.544 13.428 134.048 13.716C133.552 14.004 133.16 14.416 132.872 14.952C132.584 15.48 132.44 16.096 132.44 16.8C132.44 17.504 132.584 18.124 132.872 18.66C133.16 19.196 133.552 19.608 134.048 19.896C134.544 20.184 135.104 20.328 135.728 20.328C136.312 20.328 136.836 20.204 137.3 19.956C137.772 19.7 138.148 19.34 138.428 18.876C138.716 18.404 138.88 17.856 138.92 17.232H135.392V16.548H139.808V17.16C139.768 17.896 139.568 18.564 139.208 19.164C138.848 19.756 138.364 20.224 137.756 20.568C137.156 20.912 136.48 21.084 135.728 21.084C134.952 21.084 134.248 20.904 133.616 20.544C132.984 20.176 132.484 19.668 132.116 19.02C131.756 18.364 131.576 17.624 131.576 16.8C131.576 15.976 131.756 15.24 132.116 14.592C132.484 13.936 132.984 13.428 133.616 13.068C134.248 12.7 134.952 12.516 135.728 12.516C136.624 12.516 137.408 12.74 138.08 13.188C138.752 13.636 139.24 14.26 139.544 15.06H138.56ZM143.735 21.096C143.119 21.096 142.563 20.96 142.067 20.688C141.579 20.408 141.191 20.016 140.903 19.512C140.623 19 140.483 18.404 140.483 17.724C140.483 17.044 140.627 16.452 140.915 15.948C141.203 15.436 141.595 15.044 142.091 14.772C142.587 14.492 143.143 14.352 143.759 14.352C144.375 14.352 144.931 14.492 145.427 14.772C145.931 15.044 146.323 15.436 146.603 15.948C146.891 16.452 147.035 17.044 147.035 17.724C147.035 18.396 146.891 18.988 146.603 19.5C146.315 20.012 145.919 20.408 145.415 20.688C144.911 20.96 144.351 21.096 143.735 21.096ZM143.735 20.364C144.167 20.364 144.567 20.268 144.935 20.076C145.303 19.876 145.599 19.58 145.823 19.188C146.055 18.788 146.171 18.3 146.171 17.724C146.171 17.148 146.059 16.664 145.835 16.272C145.611 15.872 145.315 15.576 144.947 15.384C144.579 15.184 144.179 15.084 143.747 15.084C143.315 15.084 142.915 15.184 142.547 15.384C142.179 15.576 141.883 15.872 141.659 16.272C141.443 16.664 141.335 17.148 141.335 17.724C141.335 18.3 141.443 18.788 141.659 19.188C141.883 19.58 142.175 19.876 142.535 20.076C142.903 20.268 143.303 20.364 143.735 20.364ZM150.414 20.184L152.622 14.448H153.51L150.882 21H149.934L147.306 14.448H148.206L150.414 20.184ZM160.096 17.388C160.096 17.676 160.088 17.896 160.072 18.048H154.636C154.66 18.544 154.78 18.968 154.996 19.32C155.212 19.672 155.496 19.94 155.848 20.124C156.2 20.3 156.584 20.388 157 20.388C157.544 20.388 158 20.256 158.368 19.992C158.744 19.728 158.992 19.372 159.112 18.924H160C159.84 19.564 159.496 20.088 158.968 20.496C158.448 20.896 157.792 21.096 157 21.096C156.384 21.096 155.832 20.96 155.344 20.688C154.856 20.408 154.472 20.016 154.192 19.512C153.92 19 153.784 18.404 153.784 17.724C153.784 17.044 153.92 16.448 154.192 15.936C154.464 15.424 154.844 15.032 155.332 14.76C155.82 14.488 156.376 14.352 157 14.352C157.624 14.352 158.168 14.488 158.632 14.76C159.104 15.032 159.464 15.4 159.712 15.864C159.968 16.32 160.096 16.828 160.096 17.388ZM159.244 17.364C159.252 16.876 159.152 16.46 158.944 16.116C158.744 15.772 158.468 15.512 158.116 15.336C157.764 15.16 157.38 15.072 156.964 15.072C156.34 15.072 155.808 15.272 155.368 15.672C154.928 16.072 154.684 16.636 154.636 17.364H159.244ZM161.993 15.612C162.177 15.204 162.457 14.888 162.833 14.664C163.217 14.44 163.685 14.328 164.237 14.328V15.204H164.009C163.401 15.204 162.913 15.368 162.545 15.696C162.177 16.024 161.993 16.572 161.993 17.34V21H161.153V14.448H161.993V15.612ZM168.093 14.328C168.877 14.328 169.517 14.572 170.013 15.06C170.509 15.54 170.757 16.24 170.757 17.16V21H169.929V17.256C169.929 16.544 169.749 16 169.389 15.624C169.037 15.248 168.553 15.06 167.937 15.06C167.305 15.06 166.801 15.26 166.425 15.66C166.049 16.06 165.861 16.648 165.861 17.424V21H165.021V14.448H165.861V15.564C166.069 15.164 166.369 14.86 166.761 14.652C167.153 14.436 167.597 14.328 168.093 14.328ZM171.751 17.712C171.751 17.04 171.883 16.452 172.147 15.948C172.419 15.436 172.791 15.044 173.263 14.772C173.743 14.492 174.283 14.352 174.883 14.352C175.507 14.352 176.043 14.496 176.491 14.784C176.947 15.072 177.275 15.44 177.475 15.888V14.448H178.315V21H177.475V19.548C177.267 19.996 176.935 20.368 176.479 20.664C176.031 20.952 175.495 21.096 174.871 21.096C174.279 21.096 173.743 20.956 173.263 20.676C172.791 20.396 172.419 20 172.147 19.488C171.883 18.976 171.751 18.384 171.751 17.712ZM177.475 17.724C177.475 17.196 177.367 16.732 177.151 16.332C176.935 15.932 176.639 15.624 176.263 15.408C175.895 15.192 175.487 15.084 175.039 15.084C174.575 15.084 174.159 15.188 173.791 15.396C173.423 15.604 173.131 15.908 172.915 16.308C172.707 16.7 172.603 17.168 172.603 17.712C172.603 18.248 172.707 18.72 172.915 19.128C173.131 19.528 173.423 19.836 173.791 20.052C174.159 20.26 174.575 20.364 175.039 20.364C175.487 20.364 175.895 20.256 176.263 20.04C176.639 19.824 176.935 19.516 177.151 19.116C177.367 18.716 177.475 18.252 177.475 17.724ZM182.824 14.328C183.608 14.328 184.248 14.572 184.744 15.06C185.24 15.54 185.488 16.24 185.488 17.16V21H184.66V17.256C184.66 16.544 184.48 16 184.12 15.624C183.768 15.248 183.284 15.06 182.668 15.06C182.036 15.06 181.532 15.26 181.156 15.66C180.78 16.06 180.592 16.648 180.592 17.424V21H179.752V14.448H180.592V15.564C180.8 15.164 181.1 14.86 181.492 14.652C181.884 14.436 182.328 14.328 182.824 14.328ZM186.482 17.724C186.482 17.044 186.618 16.452 186.89 15.948C187.162 15.436 187.538 15.044 188.018 14.772C188.498 14.492 189.046 14.352 189.662 14.352C190.47 14.352 191.134 14.552 191.654 14.952C192.182 15.352 192.522 15.896 192.674 16.584H191.774C191.662 16.112 191.418 15.744 191.042 15.48C190.674 15.208 190.214 15.072 189.662 15.072C189.222 15.072 188.826 15.172 188.474 15.372C188.122 15.572 187.842 15.872 187.634 16.272C187.434 16.664 187.334 17.148 187.334 17.724C187.334 18.3 187.434 18.788 187.634 19.188C187.842 19.588 188.122 19.888 188.474 20.088C188.826 20.288 189.222 20.388 189.662 20.388C190.214 20.388 190.674 20.256 191.042 19.992C191.418 19.72 191.662 19.344 191.774 18.864H192.674C192.522 19.536 192.182 20.076 191.654 20.484C191.126 20.892 190.462 21.096 189.662 21.096C189.046 21.096 188.498 20.96 188.018 20.688C187.538 20.408 187.162 20.016 186.89 19.512C186.618 19 186.482 18.404 186.482 17.724ZM199.673 17.388C199.673 17.676 199.665 17.896 199.649 18.048H194.213C194.237 18.544 194.357 18.968 194.573 19.32C194.789 19.672 195.073 19.94 195.425 20.124C195.777 20.3 196.161 20.388 196.577 20.388C197.121 20.388 197.577 20.256 197.945 19.992C198.321 19.728 198.569 19.372 198.689 18.924H199.577C199.417 19.564 199.073 20.088 198.545 20.496C198.025 20.896 197.369 21.096 196.577 21.096C195.961 21.096 195.409 20.96 194.921 20.688C194.433 20.408 194.049 20.016 193.769 19.512C193.497 19 193.361 18.404 193.361 17.724C193.361 17.044 193.497 16.448 193.769 15.936C194.041 15.424 194.421 15.032 194.909 14.76C195.397 14.488 195.953 14.352 196.577 14.352C197.201 14.352 197.745 14.488 198.209 14.76C198.681 15.032 199.041 15.4 199.289 15.864C199.545 16.32 199.673 16.828 199.673 17.388ZM198.821 17.364C198.829 16.876 198.729 16.46 198.521 16.116C198.321 15.772 198.045 15.512 197.693 15.336C197.341 15.16 196.957 15.072 196.541 15.072C195.917 15.072 195.385 15.272 194.945 15.672C194.505 16.072 194.261 16.636 194.213 17.364H198.821ZM210.143 15.06C209.903 14.508 209.535 14.076 209.039 13.764C208.551 13.444 207.975 13.284 207.311 13.284C206.687 13.284 206.127 13.428 205.631 13.716C205.135 14.004 204.743 14.416 204.455 14.952C204.167 15.48 204.023 16.096 204.023 16.8C204.023 17.504 204.167 18.124 204.455 18.66C204.743 19.196 205.135 19.608 205.631 19.896C206.127 20.184 206.687 20.328 207.311 20.328C207.895 20.328 208.419 20.204 208.883 19.956C209.355 19.7 209.731 19.34 210.011 18.876C210.299 18.404 210.463 17.856 210.503 17.232H206.975V16.548H211.391V17.16C211.351 17.896 211.151 18.564 210.791 19.164C210.431 19.756 209.947 20.224 209.339 20.568C208.739 20.912 208.063 21.084 207.311 21.084C206.535 21.084 205.831 20.904 205.199 20.544C204.567 20.176 204.067 19.668 203.699 19.02C203.339 18.364 203.159 17.624 203.159 16.8C203.159 15.976 203.339 15.24 203.699 14.592C204.067 13.936 204.567 13.428 205.199 13.068C205.831 12.7 206.535 12.516 207.311 12.516C208.207 12.516 208.991 12.74 209.663 13.188C210.335 13.636 210.823 14.26 211.127 15.06H210.143ZM212.066 17.712C212.066 17.04 212.198 16.452 212.462 15.948C212.734 15.436 213.106 15.044 213.578 14.772C214.058 14.492 214.598 14.352 215.198 14.352C215.822 14.352 216.358 14.496 216.806 14.784C217.262 15.072 217.59 15.44 217.79 15.888V14.448H218.63V21H217.79V19.548C217.582 19.996 217.25 20.368 216.794 20.664C216.346 20.952 215.81 21.096 215.186 21.096C214.594 21.096 214.058 20.956 213.578 20.676C213.106 20.396 212.734 20 212.462 19.488C212.198 18.976 212.066 18.384 212.066 17.712ZM217.79 17.724C217.79 17.196 217.682 16.732 217.466 16.332C217.25 15.932 216.954 15.624 216.578 15.408C216.21 15.192 215.802 15.084 215.354 15.084C214.89 15.084 214.474 15.188 214.106 15.396C213.738 15.604 213.446 15.908 213.23 16.308C213.022 16.7 212.918 17.168 212.918 17.712C212.918 18.248 213.022 18.72 213.23 19.128C213.446 19.528 213.738 19.836 214.106 20.052C214.474 20.26 214.89 20.364 215.354 20.364C215.802 20.364 216.21 20.256 216.578 20.04C216.954 19.824 217.25 19.516 217.466 19.116C217.682 18.716 217.79 18.252 217.79 17.724ZM221.16 15.156V19.224C221.16 19.624 221.236 19.9 221.388 20.052C221.54 20.204 221.808 20.28 222.192 20.28H222.96V21H222.06C221.468 21 221.028 20.864 220.74 20.592C220.452 20.312 220.308 19.856 220.308 19.224V15.156H219.396V14.448H220.308V12.804H221.16V14.448H222.96V15.156H221.16ZM229.793 17.388C229.793 17.676 229.785 17.896 229.769 18.048H224.333C224.357 18.544 224.477 18.968 224.693 19.32C224.909 19.672 225.193 19.94 225.545 20.124C225.897 20.3 226.281 20.388 226.697 20.388C227.241 20.388 227.697 20.256 228.065 19.992C228.441 19.728 228.689 19.372 228.809 18.924H229.697C229.537 19.564 229.193 20.088 228.665 20.496C228.145 20.896 227.489 21.096 226.697 21.096C226.081 21.096 225.529 20.96 225.041 20.688C224.553 20.408 224.169 20.016 223.889 19.512C223.617 19 223.481 18.404 223.481 17.724C223.481 17.044 223.617 16.448 223.889 15.936C224.161 15.424 224.541 15.032 225.029 14.76C225.517 14.488 226.073 14.352 226.697 14.352C227.321 14.352 227.865 14.488 228.329 14.76C228.801 15.032 229.161 15.4 229.409 15.864C229.665 16.32 229.793 16.828 229.793 17.388ZM228.941 17.364C228.949 16.876 228.849 16.46 228.641 16.116C228.441 15.772 228.165 15.512 227.813 15.336C227.461 15.16 227.077 15.072 226.661 15.072C226.037 15.072 225.505 15.272 225.065 15.672C224.625 16.072 224.381 16.636 224.333 17.364H228.941ZM239.49 14.448L237.438 21H236.598L234.786 15.504L232.974 21H232.122L230.07 14.448H230.922L232.554 20.148L234.39 14.448H235.23L237.042 20.16L238.662 14.448H239.49ZM239.771 17.712C239.771 17.04 239.903 16.452 240.167 15.948C240.439 15.436 240.811 15.044 241.283 14.772C241.763 14.492 242.303 14.352 242.903 14.352C243.527 14.352 244.063 14.496 244.511 14.784C244.967 15.072 245.295 15.44 245.495 15.888V14.448H246.335V21H245.495V19.548C245.287 19.996 244.955 20.368 244.499 20.664C244.051 20.952 243.515 21.096 242.891 21.096C242.299 21.096 241.763 20.956 241.283 20.676C240.811 20.396 240.439 20 240.167 19.488C239.903 18.976 239.771 18.384 239.771 17.712ZM245.495 17.724C245.495 17.196 245.387 16.732 245.171 16.332C244.955 15.932 244.659 15.624 244.283 15.408C243.915 15.192 243.507 15.084 243.059 15.084C242.595 15.084 242.179 15.188 241.811 15.396C241.443 15.604 241.151 15.908 240.935 16.308C240.727 16.7 240.623 17.168 240.623 17.712C240.623 18.248 240.727 18.72 240.935 19.128C241.151 19.528 241.443 19.836 241.811 20.052C242.179 20.26 242.595 20.364 243.059 20.364C243.507 20.364 243.915 20.256 244.283 20.04C244.659 19.824 244.955 19.516 245.171 19.116C245.387 18.716 245.495 18.252 245.495 17.724ZM253.173 14.448L249.285 24.084H248.409L249.681 20.964L246.993 14.448H247.917L250.149 20.04L252.309 14.448H253.173Z" fill="white"/>
<line x1="121.25" y1="11" x2="121.25" y2="21" stroke="white" stroke-width="0.5"/>
</svg>
